<svg width="24" height="24" viewBox="0 0 24 24" fill="none" xmlns="http://www.w3.org/2000/svg">
<path d="M5.0145 8.58669L5.01459 8.58677L11.6611 14.5637L11.9954 14.8643L12.3297 14.5637L18.9778 8.58681L18.9778 8.58684L18.9829 8.5822C19.0104 8.55676 19.0443 8.53557 19.0832 8.52103C19.1221 8.50647 19.1644 8.49918 19.2074 8.50007C19.2504 8.50096 19.2922 8.51 19.3302 8.52604L19.5167 8.08476L19.3302 8.52604C19.3681 8.54207 19.4007 8.56444 19.4267 8.59069C19.4527 8.61688 19.4716 8.64634 19.4836 8.67673C19.4956 8.70707 19.5009 8.73853 19.4998 8.76957C19.4986 8.80064 19.491 8.83196 19.4765 8.8619C19.462 8.8919 19.4405 8.92055 19.4121 8.9454L19.4121 8.94537L19.407 8.94994L12.2104 15.4201L12.2102 15.4203C12.1558 15.4692 12.0793 15.5 11.9954 15.5C11.9115 15.5 11.835 15.4692 11.7806 15.4203L11.7805 15.4201L4.58478 8.95006C4.58476 8.95004 4.58474 8.95003 4.58472 8.95001C4.55704 8.92509 4.53622 8.89654 4.5222 8.86673C4.5082 8.83697 4.50093 8.80588 4.50001 8.77506C4.4991 8.74424 4.50451 8.71305 4.51656 8.68298C4.52864 8.65284 4.54747 8.62364 4.57325 8.59767L4.21964 8.24668L4.57325 8.59767C4.59909 8.57164 4.63136 8.54942 4.6689 8.53342C4.70646 8.51741 4.74784 8.50826 4.79049 8.50711C4.83314 8.50596 4.87519 8.51287 4.91399 8.52696C4.95277 8.54104 4.98675 8.56172 5.0145 8.58669Z" fill="#161616" stroke="#E73A3F"/>
</svg>
