<svg width="24" height="16" viewBox="0 0 24 16" fill="none" xmlns="http://www.w3.org/2000/svg">
<g id="Group 314">
<path id="Vector" d="M22.0175 6.74688C21.6739 6.29078 20.3975 5.97672 19.8575 5.15594C19.3175 4.33516 18.8755 2.55766 17.5011 1.87469C16.1268 1.19172 13.4999 1 11.9999 1C10.4999 1 7.87488 1.1875 6.49863 1.87328C5.12238 2.55906 4.68223 4.33516 4.14223 5.15453C3.60223 5.97391 2.32582 6.29078 1.98223 6.74688C1.63863 7.20297 1.39676 10.0863 1.54394 11.5C1.69113 12.9137 1.96582 13.75 1.96582 13.75H5.99707C6.65707 13.75 6.87176 13.502 8.22176 13.375C9.70301 13.2344 11.1561 13.1875 11.9999 13.1875C12.8436 13.1875 14.3436 13.2344 15.8239 13.375C17.1739 13.503 17.3957 13.75 18.0486 13.75H22.033C22.033 13.75 22.3077 12.9137 22.4549 11.5C22.6021 10.0863 22.3593 7.20297 22.0175 6.74688ZM18.7499 13.75H21.3749V14.5H18.7499V13.75ZM2.62488 13.75H5.24988V14.5H2.62488V13.75Z" stroke="#161616" stroke-width="1.5" stroke-linecap="round" stroke-linejoin="round"/>
<path id="Vector_2" d="M7.82825 11.4531L7.91384 10.708C7.85158 10.7008 7.7692 10.6788 7.68439 10.6405C7.77782 10.5959 7.90047 10.5467 8.05812 10.4964C8.40675 10.3853 8.86135 10.2898 9.4055 10.2192C9.50452 10.2064 9.59827 10.1941 9.68758 10.1824C10.636 10.0584 11.0833 9.99997 12.0095 9.99997C13.0299 9.99997 13.4268 10.0417 14.5984 10.2172C15.1741 10.3034 15.6568 10.4078 16.0159 10.521C16.1488 10.5629 16.2568 10.6036 16.3418 10.6413C16.2629 10.677 16.1813 10.6997 16.1129 10.7083C15.6875 10.7563 14.9222 10.7542 13.5417 10.7503C13.099 10.749 12.593 10.7476 12.0147 10.7476C11.4363 10.7476 10.9303 10.749 10.4876 10.7503C9.10359 10.7542 8.33786 10.7563 7.91318 10.7079L7.82825 11.4531ZM7.82825 11.4531C8.30002 11.5069 9.13232 11.5044 10.5428 11.5003C10.9766 11.499 11.4651 11.4976 12.0147 11.4976C12.5642 11.4976 13.0527 11.499 13.4865 11.5003C14.897 11.5044 15.7293 11.5069 16.2011 11.4531L7.45487 10.7818C7.45295 10.7837 7.4521 10.7847 7.4521 10.7847C7.4521 10.7847 7.45248 10.7843 7.45317 10.7834L6.93434 10.2418M7.82825 11.4531C7.19168 11.38 6.38074 10.7781 6.93434 10.2418M6.93434 10.2418L7.45567 10.78M6.93434 10.2418C7.30324 9.8884 8.1634 9.62403 9.30903 9.47544C9.40848 9.46254 9.50296 9.45018 9.59328 9.43836C10.5434 9.31407 11.0335 9.24997 12.0095 9.24997C13.0782 9.24997 13.5142 9.29637 14.7095 9.47544C15.9048 9.6545 16.8076 9.92169 17.0847 10.2418L7.45567 10.78M7.45567 10.78C7.45994 10.7741 7.46749 10.7623 7.47538 10.7442C7.4926 10.7046 7.50279 10.6543 7.49955 10.6013C7.49582 10.5402 7.4773 10.5054 7.47114 10.4956M7.45567 10.78L7.47114 10.4956M7.47114 10.4956C7.46967 10.4938 7.46908 10.4928 7.46914 10.4928C7.46921 10.4928 7.46994 10.4938 7.47114 10.4956Z" fill="#161616" stroke="#161616" stroke-width="1.5"/>
<path id="Vector_3" d="M20.25 4.75H21M3 4.75H3.75M3.65625 5.64062C3.65625 5.64062 5.82891 5.07812 12 5.07812C18.1711 5.07812 20.3438 5.64062 20.3438 5.64062" stroke="#161616" stroke-width="1.5" stroke-linecap="round" stroke-linejoin="round"/>
</g>
</svg>
