<svg width="11" height="18" viewBox="0 0 11 18" fill="none" xmlns="http://www.w3.org/2000/svg">
<g clip-path="url(#clip0_2004_1113)">
<path d="M9.38889 1.38892H1.61111C1.31643 1.38892 1.03381 1.50598 0.825437 1.71435C0.617063 1.92273 0.5 2.20534 0.5 2.50003L0.5 5.00003H10.5V2.50003C10.5 2.20534 10.3829 1.92273 10.1746 1.71435C9.96619 1.50598 9.68357 1.38892 9.38889 1.38892Z" fill="#005BBB"/>
<path d="M10.5 7.5C10.5 7.79469 10.3829 8.0773 10.1746 8.28567C9.96619 8.49405 9.68357 8.61111 9.38889 8.61111H1.61111C1.31643 8.61111 1.03381 8.49405 0.825437 8.28567C0.617063 8.0773 0.5 7.79469 0.5 7.5V5H10.5V7.5Z" fill="#FFD500"/>
</g>
<path d="M0.624 13.928V10.664H1.288V13.912C1.288 14.888 1.816 15.504 2.8 15.504C3.784 15.504 4.312 14.888 4.312 13.912V10.664H4.976V13.92C4.976 15.248 4.248 16.096 2.8 16.096C1.352 16.096 0.624 15.24 0.624 13.928ZM9.84663 16L9.37463 14.816H6.67063L6.19863 16H5.46263L7.60663 10.664H8.43063L10.5826 16H9.84663ZM8.02263 11.256L6.86263 14.224H9.17463L8.02263 11.256Z" fill="white"/>
<defs>
<clipPath id="clip0_2004_1113">
<rect width="10" height="10" fill="white" transform="translate(0.5)"/>
</clipPath>
</defs>
</svg>
