<svg width="168" height="40" viewBox="0 0 168 40" fill="none" xmlns="http://www.w3.org/2000/svg">
<g id="logo 1">
<g clip-path="url(#clip0_0_765)">
<path id="Vector" d="M123 0H0.000183105V40H123V0Z" fill="black"/>
<path id="Vector_2" d="M21.9327 27.9664L21.0194 25.5647H14.4435L13.5302 27.9664H10.0002L17.1972 9.18193H18.2977L25.4718 27.9664H21.9327ZM19.8823 22.4619L17.736 16.2248L15.5897 22.4619H19.8823ZM26.9697 21.8706V14.1266H30.2622V22.1793C30.2418 22.5308 30.2866 22.8833 30.3937 23.2136C30.5007 23.5439 30.6676 23.8444 30.8832 24.0955C31.0989 24.3466 31.3585 24.5425 31.645 24.6704C31.9316 24.7982 32.2384 24.8552 32.5455 24.8374C32.8432 24.8477 33.1396 24.7886 33.4167 24.6635C33.6938 24.5385 33.9459 24.3502 34.1575 24.1101C34.3719 23.8538 34.5394 23.551 34.65 23.2193C34.7605 22.8877 34.812 22.5341 34.8014 22.1793V14.1266H38.0939V21.8706C38.1227 22.7275 37.9968 23.582 37.7242 24.3806C37.4515 25.1792 37.0379 25.9047 36.5093 26.5118C35.9916 27.1035 35.3737 27.5676 34.6936 27.8754C34.0134 28.1832 33.2855 28.3281 32.5546 28.3013C31.8084 28.3469 31.0621 28.2116 30.3646 27.9041C29.6672 27.5967 29.0342 27.124 28.507 26.517C27.9799 25.9101 27.5705 25.1825 27.3056 24.3818C27.0407 23.5812 26.9262 22.7254 26.9697 21.8706ZM49.0035 24.8269V27.9664C48.2574 28.186 47.4905 28.2984 46.7202 28.3013C45.1767 28.3013 43.9818 27.8635 43.1354 26.9879C42.2891 26.1124 41.8781 24.8164 41.9024 23.1002V17.3184H39.9982V14.1266H41.9024V10.6366H45.195V14.1266H48.6108V17.3184H45.195V22.7654C45.1689 23.0711 45.2011 23.3796 45.2894 23.6696C45.3777 23.9597 45.52 24.2242 45.7064 24.445C46.2264 24.8097 46.8339 24.9764 47.4417 24.9211C47.7157 24.9211 48.2364 24.8845 49.0035 24.8269ZM50.474 21.0544C50.4508 20.0967 50.6062 19.1443 50.9299 18.2609C51.2536 17.3776 51.738 16.5835 52.3508 15.9318C53.59 14.5875 55.2315 13.8383 56.938 13.8383C58.6447 13.8383 60.286 14.5875 61.5249 15.9318C62.1444 16.5778 62.6352 17.3694 62.9628 18.2526C63.2911 19.1358 63.4486 20.0897 63.4248 21.0491C63.448 22.0123 63.2898 22.9698 62.9622 23.8572C62.6346 24.7445 62.1444 25.5409 61.5249 26.1926C60.9212 26.8828 60.2006 27.4245 59.4073 27.7844C58.6146 28.1443 57.7654 28.3149 56.9128 28.2856C56.0672 28.3138 55.2254 28.1427 54.4398 27.7826C53.6542 27.4226 52.9416 26.8814 52.3463 26.1926C51.7348 25.5321 51.2519 24.7312 50.9293 23.8421C50.6067 22.9531 50.4515 21.9959 50.474 21.0334V21.0544ZM59.1506 23.7647C59.4531 23.4113 59.6904 22.9912 59.8473 22.5298C60.0042 22.0684 60.0776 21.5754 60.0638 21.0805C60.0745 20.5821 59.9998 20.0861 59.8429 19.621C59.686 19.1559 59.4506 18.7308 59.1506 18.3701C58.8619 18.0262 58.5154 17.7526 58.132 17.5658C57.7485 17.3789 57.3363 17.2826 56.9197 17.2826C56.5031 17.2826 56.0909 17.3789 55.7075 17.5658C55.3243 17.7526 54.9778 18.0262 54.689 18.3701C54.0959 19.1056 53.7808 20.0798 53.8122 21.0805C53.7823 22.073 54.0977 23.0385 54.689 23.7647C54.9813 24.1016 55.3289 24.3688 55.7118 24.5512C56.0946 24.7336 56.5051 24.8275 56.9197 24.8275C57.3343 24.8275 57.7447 24.7336 58.1276 24.5512C58.5104 24.3688 58.8581 24.1016 59.1506 23.7647ZM77.0701 15.9161C78.2036 17.3074 78.8099 19.1571 78.7547 21.0596C78.8036 22.9782 78.1992 24.8433 77.0701 26.2606C76.5479 26.9348 75.904 27.4712 75.1834 27.8325C74.4629 28.1938 73.6821 28.3717 72.8957 28.3536C72.2248 28.3888 71.5551 28.2574 70.9325 27.9684C70.3099 27.6794 69.7488 27.2396 69.2881 26.6792V33H65.9956V14.1266H69.0188V15.8637C69.8498 14.5033 71.1421 13.8231 72.8957 13.8231C73.6815 13.8 74.4623 13.9728 75.1834 14.3297C75.9052 14.6866 76.5504 15.2189 77.0745 15.8899L77.0701 15.9161ZM75.4119 21.0857C75.4345 20.5771 75.368 20.0684 75.2167 19.5895C75.0654 19.1107 74.832 18.6712 74.5307 18.2969C74.2432 17.9503 73.8943 17.6779 73.5077 17.4974C73.121 17.317 72.7056 17.2328 72.2888 17.2504C71.8815 17.2383 71.4773 17.3217 71.0994 17.4953C70.7216 17.669 70.3789 17.9293 70.0921 18.2602C69.7952 18.6377 69.5668 19.0792 69.4199 19.5589C69.2737 20.0387 69.2115 20.547 69.2379 21.0544C69.1877 22.0881 69.4946 23.1032 70.0921 23.8799C70.3789 24.2099 70.7222 24.4692 71.1001 24.6419C71.4773 24.8147 71.8821 24.8972 72.2888 24.8845C72.7099 24.8961 73.1279 24.8035 73.5152 24.6129C73.9018 24.4225 74.2483 24.1384 74.5307 23.7805C74.8288 23.4169 75.0604 22.9892 75.2123 22.5221C75.3648 22.0549 75.4339 21.5577 75.4169 21.0596L75.4119 21.0857ZM91.4636 19.7724V27.9664H88.4359V26.6269C87.9576 27.185 87.3827 27.6223 86.7482 27.9106C86.1136 28.199 85.4333 28.332 84.7511 28.3013C83.647 28.3644 82.5612 27.9561 81.7052 27.1553C81.3367 26.7822 81.0449 26.3205 80.851 25.803C80.6564 25.2856 80.5648 24.7253 80.5817 24.1624C80.5616 23.5965 80.662 23.0335 80.8748 22.5221C81.0869 22.0107 81.4052 21.5662 81.8006 21.227C82.779 20.4438 83.9558 20.0537 85.1483 20.1178H88.171V19.5265C88.1917 19.1976 88.1503 18.8674 88.0492 18.5586C87.9488 18.2498 87.7907 17.9695 87.5867 17.737C87.3645 17.5107 87.1047 17.3373 86.8235 17.2268C86.5417 17.1163 86.2442 17.071 85.9473 17.0934C85.3787 17.0833 84.8163 17.2362 84.3123 17.5381C83.728 17.9255 83.2008 18.4165 82.7508 18.9928L81.043 16.6748C81.6713 15.7746 82.4715 15.051 83.3816 14.5595C84.2923 14.068 85.2883 13.8214 86.2944 13.8388C86.981 13.7993 87.6683 13.9179 88.3141 14.1876C88.9606 14.4571 89.5531 14.8723 90.057 15.4085C90.9947 16.4201 91.4654 17.866 91.4686 19.7462L91.4636 19.7724ZM88.1666 22.8229V22.6293H85.582C84.4586 22.6293 83.8968 23.095 83.8968 24.0264C83.8899 24.2405 83.9276 24.4534 84.0067 24.6473C84.0864 24.8412 84.205 25.0105 84.3538 25.1409C84.731 25.4197 85.1747 25.5568 85.6228 25.5333C86.295 25.5687 86.9515 25.2978 87.4499 24.7798C87.6859 24.5267 87.8723 24.2189 87.9965 23.8771C88.1208 23.5352 88.1804 23.167 88.171 22.7967L88.1666 22.8229ZM102.049 14.1527V17.4806H101.172C100.301 17.4255 99.4439 17.7572 98.7792 18.4067C98.4805 18.7594 98.2501 19.1802 98.1033 19.6419C97.9558 20.1035 97.8955 20.5955 97.9257 21.0857V27.9664H94.6237V14.1266H97.647V15.7801C98.0355 15.1974 98.5388 14.7285 99.1156 14.412C99.6931 14.0955 100.327 13.9403 100.967 13.9592C101.334 13.952 101.701 14.0084 102.054 14.1266L102.049 14.1527ZM116 27.9664H112.242L107.41 20.3061V27.9664H104.118V7H107.41V20.0288L111.753 14.1266H115.631L111.091 20.2486L116 27.9664Z" fill="white"/>
<path id="Vector_3" d="M168 0H124V40H168V0Z" fill="#DA2025"/>
<path id="Vector_4" d="M132.01 20.8845V12.3273H135.787V21.2257C135.771 21.6172 135.827 22.0082 135.953 22.375C136.078 22.7418 136.269 23.0766 136.515 23.3592C136.77 23.623 137.07 23.8287 137.397 23.9646C137.724 24.1006 138.073 24.164 138.422 24.1513C138.763 24.1626 139.102 24.0971 139.419 23.959C139.736 23.8208 140.024 23.6128 140.266 23.3476C140.51 23.0635 140.701 22.7284 140.825 22.362C140.951 21.9956 141.008 21.6053 140.995 21.2141V12.3273H144.771V20.8845C144.805 21.8315 144.662 22.7761 144.349 23.6588C144.036 24.5415 143.561 25.3431 142.954 26.013C142.36 26.6665 141.653 27.1791 140.874 27.5192C140.094 27.8593 139.26 28.0196 138.422 27.9905C137.566 28.0408 136.71 27.8913 135.909 27.5515C135.109 27.2119 134.382 26.6897 133.778 26.019C133.172 25.3485 132.702 24.5446 132.397 23.6598C132.093 22.7751 131.961 21.8294 132.01 20.8845ZM160 18.5371V27.6204H156.532V26.1403C155.982 26.7558 155.323 27.2382 154.595 27.5568C153.867 27.8753 153.087 28.0231 152.304 27.9905C151.036 28.06 149.79 27.6089 148.805 26.7243C148.382 26.3119 148.048 25.8016 147.825 25.2299C147.603 24.6581 147.497 24.039 147.516 23.417C147.493 22.7916 147.609 22.1696 147.852 21.6044C148.096 21.0393 148.461 20.5482 148.915 20.1733C150.036 19.3091 151.384 18.8782 152.75 18.9476H156.223V18.2942C156.245 17.9309 156.198 17.5664 156.082 17.2253C155.966 16.8843 155.785 16.5745 155.552 16.3168C155.294 16.0635 154.992 15.8699 154.664 15.7477C154.337 15.6256 153.99 15.5773 153.646 15.6056C152.993 15.5953 152.349 15.7642 151.77 16.0971C151.101 16.5278 150.497 17.07 149.978 17.7045L148.025 15.1431C148.748 14.1452 149.669 13.3439 150.717 12.8005C151.765 12.2572 152.912 11.9866 154.07 12.0093C154.862 11.9626 155.653 12.0921 156.398 12.3901C157.143 12.6881 157.827 13.1485 158.408 13.7439C159.472 14.8617 160.004 16.4594 160 18.5371ZM156.223 21.9079V21.7229H153.258C151.969 21.7229 151.325 22.2375 151.325 23.2667C151.317 23.5032 151.36 23.7385 151.451 23.9528C151.542 24.1671 151.679 24.3541 151.849 24.4982C152.28 24.8062 152.787 24.9578 153.3 24.9319C154.071 24.9697 154.823 24.6705 155.395 24.0993C155.666 23.8195 155.879 23.4795 156.022 23.1017C156.165 22.724 156.233 22.317 156.223 21.9079Z" fill="white"/>
</g>
</g>
<defs>
<clipPath id="clip0_0_765">
<rect x="0.000183105" width="168" height="40" rx="6.66667" fill="white"/>
</clipPath>
</defs>
</svg>
